<svg width="26" height="15" fill="none" xmlns="http://www.w3.org/2000/svg"><path fill-rule="evenodd" clip-rule="evenodd" d="M7.583 6.429V9h4.301c-.173 1.102-1.3 3.236-4.3 3.236-2.59 0-4.702-2.12-4.702-4.736 0-2.614 2.112-4.736 4.701-4.736 1.474 0 2.46.622 3.023 1.157l2.058-1.96C11.342.739 9.631 0 7.584 0 3.39 0 0 3.354 0 7.5S3.39 15 7.583 15c4.377 0 7.281-3.043 7.281-7.329 0-.492-.055-.867-.12-1.242h-7.16zm0 0L26 8.57h-3.25v3.215h-2.167V8.57h-3.25V6.43h3.25V3.214h2.167V6.43H26v2.14L7.583 6.43z" fill="#CD1F1F"/></svg>