<svg width="16" height="16" fill="none" xmlns="http://www.w3.org/2000/svg"><path d="M7.586 2c2.026 0 2.266.007 3.066.044 2.056.093 3.016 1.069 3.11 3.11.037.8.044 1.04.044 3.065 0 2.026-.008 2.266-.044 3.065-.094 2.04-1.052 3.016-3.11 3.11-.8.037-1.039.044-3.066.044-2.025 0-2.266-.007-3.065-.044-2.061-.094-3.016-1.074-3.11-3.11-.037-.8-.044-1.04-.044-3.066 0-2.025.008-2.265.044-3.065.094-2.04 1.052-3.016 3.11-3.11C5.32 2.007 5.56 2 7.586 2zm0-1.368c-2.06 0-2.318.009-3.127.046C1.704.804.173 2.333.046 5.09.01 5.9 0 6.158 0 8.218s.009 2.32.046 3.128c.126 2.755 1.655 4.287 4.412 4.413.81.037 1.068.046 3.128.046s2.32-.01 3.128-.046c2.753-.127 4.288-1.655 4.412-4.413.038-.809.046-1.067.046-3.128 0-2.06-.008-2.318-.045-3.127-.124-2.753-1.655-4.286-4.412-4.413C9.905.641 9.646.632 7.586.632zm0 3.69a3.896 3.896 0 100 7.792 3.896 3.896 0 000-7.791zm0 6.425a2.528 2.528 0 110-5.057 2.528 2.528 0 010 5.057zm4.05-7.488a.91.91 0 100 1.821.91.91 0 000-1.821z" fill="#151B1E"/></svg>