<svg width="16" height="13" fill="none" xmlns="http://www.w3.org/2000/svg"><path d="M15.954 1.513a6.214 6.214 0 01-1.788.49A3.118 3.118 0 0015.535.281a6.235 6.235 0 01-1.977.756 3.116 3.116 0 00-5.305 2.839A8.837 8.837 0 011.838.622a3.117 3.117 0 00.963 4.156 3.1 3.1 0 01-1.41-.39c-.033 1.443 1 2.792 2.497 3.092a3.12 3.12 0 01-1.406.053A3.115 3.115 0 005.39 9.696a6.259 6.259 0 01-4.608 1.29 8.812 8.812 0 004.771 1.398c5.78 0 9.045-4.882 8.848-9.26a6.336 6.336 0 001.553-1.61z" fill="#151B1E"/></svg>