<svg width="18" height="22" viewBox="0 0 18 22" fill="none" xmlns="http://www.w3.org/2000/svg">
<path d="M18 16.1403C17.2926 18.2303 15.1749 21.931 12.9933 21.9714C11.5461 21.9998 11.0808 21.0978 9.4266 21.0978C7.7733 21.0978 7.2558 21.9439 5.8878 21.9989C3.573 22.0896 0 16.6573 0 11.9198C0 7.56824 2.9772 5.41126 5.5782 5.37184C6.9732 5.34617 8.2908 6.32979 9.1413 6.32979C9.9954 6.32979 11.5956 5.14725 13.2777 5.32051C13.9815 5.35076 15.9588 5.60926 17.2278 7.49949C13.8609 9.73806 14.3856 14.4196 18 16.1403ZM13.3002 0C10.7568 0.104503 8.6814 2.82251 8.9712 5.07025C11.322 5.25634 13.5774 2.57225 13.3002 0Z" fill="#857C7C"/>
</svg>
