<svg width="18" height="21" viewBox="0 0 18 21" fill="none" xmlns="http://www.w3.org/2000/svg">
<path d="M11 1H3C2.46957 1 1.96086 1.19959 1.58579 1.55486C1.21071 1.91013 1 2.39198 1 2.8944V18.0496C1 18.552 1.21071 19.0339 1.58579 19.3892C1.96086 19.7444 2.46957 19.944 3 19.944H15C15.5304 19.944 16.0391 19.7444 16.4142 19.3892C16.7893 19.0339 17 18.552 17 18.0496V6.6832M11 1L17 6.6832M11 1V6.6832H17M13 11.4192H5M13 15.208H5M7 7.63041H5" stroke="black" stroke-width="2" stroke-linecap="round" stroke-linejoin="round"/>
</svg>
