<svg width="26" height="15" viewBox="0 0 26 15" fill="none" xmlns="http://www.w3.org/2000/svg">
<path fill-rule="evenodd" clip-rule="evenodd" d="M7.58333 6.42857V9H11.8842C11.7108 10.1025 10.5842 12.2357 7.58333 12.2357C4.99417 12.2357 2.88167 10.1154 2.88167 7.5C2.88167 4.88571 4.99417 2.76429 7.58333 2.76429C9.05667 2.76429 10.0425 3.38571 10.6058 3.92143L12.6642 1.96071C11.3425 0.739286 9.63083 0 7.58333 0C3.39083 0 0 3.35357 0 7.5C0 11.6464 3.39083 15 7.58333 15C11.96 15 14.8644 11.9571 14.8644 7.67143C14.8644 7.17857 14.8092 6.80357 14.7442 6.42857H7.58333ZM7.58333 6.42857L26 8.57143H22.75V11.7857H20.5833V8.57143H17.3333V6.42857H20.5833V3.21429H22.75V6.42857H26V8.57143L7.58333 6.42857Z" fill="#CD1F1F"/>
</svg>
