<svg width="30" height="23" viewBox="0 0 30 23" fill="none" xmlns="http://www.w3.org/2000/svg">
<path d="M7.62891 21.479V11.479H13.6289V21.479M1.62891 8.479L10.6289 1.479L19.6289 8.479V19.479C19.6289 20.0094 19.4182 20.5181 19.0431 20.8932C18.668 21.2683 18.1593 21.479 17.6289 21.479H3.62891C3.09847 21.479 2.58977 21.2683 2.21469 20.8932C1.83962 20.5181 1.62891 20.0094 1.62891 19.479V8.479Z" stroke="white" stroke-width="2" stroke-linecap="round" stroke-linejoin="round"/>
<path d="M22.3333 13.6667C25.2789 13.6667 27.6667 11.2789 27.6667 8.33333C27.6667 5.38781 25.2789 3 22.3333 3C19.3878 3 17 5.38781 17 8.33333C17 11.2789 19.3878 13.6667 22.3333 13.6667Z" fill="#FBAE3F"/>
<path d="M29 15L26.1 12.1M27.6667 8.33333C27.6667 11.2789 25.2789 13.6667 22.3333 13.6667C19.3878 13.6667 17 11.2789 17 8.33333C17 5.38781 19.3878 3 22.3333 3C25.2789 3 27.6667 5.38781 27.6667 8.33333Z" stroke="white" stroke-width="2" stroke-linecap="round" stroke-linejoin="round"/>
</svg>
