<svg width="24" height="22" viewBox="0 0 24 22" fill="none" xmlns="http://www.w3.org/2000/svg">
<path d="M21.1194 3.43525C20.6087 2.92426 20.0022 2.5189 19.3348 2.24233C18.6673 1.96577 17.9519 1.82343 17.2294 1.82343C16.5069 1.82343 15.7915 1.96577 15.1241 2.24233C14.4566 2.5189 13.8502 2.92426 13.3394 3.43525L12.2794 4.49525L11.2194 3.43525C10.1877 2.40356 8.78845 1.82396 7.32942 1.82396C5.87038 1.82396 4.47111 2.40356 3.43942 3.43525C2.40772 4.46694 1.82813 5.86622 1.82812 7.32525C1.82812 8.78428 2.40772 10.1836 3.43942 11.2153L4.49942 12.2753L12.2794 20.0553L20.0594 12.2753L21.1194 11.2153C21.6304 10.7045 22.0358 10.0981 22.3123 9.43061C22.5889 8.76315 22.7312 8.04774 22.7312 7.32525C22.7312 6.60276 22.5889 5.88735 22.3123 5.2199C22.0358 4.55244 21.6304 3.94601 21.1194 3.43525V3.43525Z" stroke="black" stroke-width="2" stroke-linecap="round" stroke-linejoin="round"/>
</svg>
