<svg width="19" height="23" viewBox="0 0 19 23" fill="none" xmlns="http://www.w3.org/2000/svg">
<path d="M11.6289 1.479H3.62891C3.09847 1.479 2.58977 1.68972 2.21469 2.06479C1.83962 2.43986 1.62891 2.94857 1.62891 3.479V19.479C1.62891 20.0094 1.83962 20.5181 2.21469 20.8932C2.58977 21.2683 3.09847 21.479 3.62891 21.479H15.6289C16.1593 21.479 16.668 21.2683 17.0431 20.8932C17.4182 20.5181 17.6289 20.0094 17.6289 19.479V7.479M11.6289 1.479L17.6289 7.479M11.6289 1.479V7.479H17.6289M13.6289 12.479H5.62891M13.6289 16.479H5.62891M7.62891 8.479H5.62891" stroke="white" stroke-width="2" stroke-linecap="round" stroke-linejoin="round"/>
</svg>
