<svg width="15" height="18" viewBox="0 0 15 18" fill="none" xmlns="http://www.w3.org/2000/svg">
<path d="M9.125 1H2.625C2.19402 1 1.7807 1.16857 1.47595 1.46863C1.1712 1.76869 1 2.17565 1 2.6V15.4C1 15.8243 1.1712 16.2313 1.47595 16.5314C1.7807 16.8314 2.19402 17 2.625 17H12.375C12.806 17 13.2193 16.8314 13.524 16.5314C13.8288 16.2313 14 15.8243 14 15.4V5.8M9.125 1L14 5.8M9.125 1V5.8H14M10.75 9.8H4.25M10.75 13H4.25M5.875 6.6H4.25" stroke="#00ADBB" stroke-width="2" stroke-linecap="round" stroke-linejoin="round"/>
</svg>
