<svg width="25" height="21" viewBox="0 0 25 21" fill="none" xmlns="http://www.w3.org/2000/svg">
<path d="M16.0732 19.835V17.835C16.0732 16.7741 15.6518 15.7567 14.9017 15.0065C14.1515 14.2564 13.1341 13.835 12.0732 13.835H5.07324C4.01238 13.835 2.99496 14.2564 2.24482 15.0065C1.49467 15.7567 1.07324 16.7741 1.07324 17.835V19.835M17.0732 9.83496L19.0732 11.835L23.0732 7.83496M12.5732 5.83496C12.5732 8.0441 10.7824 9.83496 8.57324 9.83496C6.3641 9.83496 4.57324 8.0441 4.57324 5.83496C4.57324 3.62582 6.3641 1.83496 8.57324 1.83496C10.7824 1.83496 12.5732 3.62582 12.5732 5.83496Z" stroke="white" stroke-width="2" stroke-linecap="round" stroke-linejoin="round"/>
</svg>
