<svg width="16" height="13" viewBox="0 0 16 13" fill="none" xmlns="http://www.w3.org/2000/svg">
<path d="M15.954 1.51318C15.3958 1.761 14.7959 1.92789 14.1662 2.00312C14.8091 1.61812 15.3029 1.00806 15.5349 0.281053C14.9337 0.637605 14.2674 0.8968 13.558 1.03651C12.991 0.431513 12.1811 0.0534668 11.286 0.0534668C9.27626 0.0534668 7.79948 1.92852 8.25339 3.87502C5.66713 3.74542 3.37356 2.50634 1.83799 0.623065C1.02247 2.02209 1.41506 3.85226 2.8008 4.77904C2.29126 4.7626 1.8108 4.62289 1.39167 4.38962C1.35753 5.83163 2.39115 7.18071 3.88816 7.481C3.45006 7.59985 2.97023 7.62766 2.48218 7.5341C2.87793 8.77065 4.02724 9.67025 5.39023 9.69554C4.08161 10.7216 2.43287 11.1799 0.781609 10.9852C2.15914 11.8684 3.79586 12.3836 5.55333 12.3836C11.3328 12.3836 14.598 7.50249 14.4007 3.12462C15.0089 2.68525 15.5368 2.13715 15.954 1.51318Z" fill="#151B1E"/>
</svg>
